<svg xmlns="http://www.w3.org/2000/svg" width="800" height="450" viewBox="0 0 800 450">
  <defs>
    <linearGradient id="bg" x1="0" y1="0" x2="1" y2="1">
      <stop offset="0%" stop-color="#78350f" />
      <stop offset="100%" stop-color="#f97316" />
    </linearGradient>
    <linearGradient id="shine" x1="0" y1="0" x2="0" y2="1">
      <stop offset="0%" stop-color="rgba(255,255,255,0.08)" />
      <stop offset="100%" stop-color="rgba(255,255,255,0)" />
    </linearGradient>
  </defs>

  <!-- Background gradient -->
  <rect width="800" height="450" fill="url(#bg)" />
  <rect width="800" height="225" fill="url(#shine)" />
  <rect width="800" height="450" fill="rgba(0,0,0,0.15)" />

  <!-- Grid pattern -->
  <g opacity="0.06">
    <path d="M0 50H800 M0 100H800 M0 150H800 M0 200H800 M0 250H800 M0 300H800 M0 350H800 M0 400H800"
          stroke="white" stroke-width="1" />
    <path d="M100 0V450 M200 0V450 M300 0V450 M400 0V450 M500 0V450 M600 0V450 M700 0V450"
          stroke="white" stroke-width="1" />
  </g>

  <!-- Decorative elements -->
  <circle cx="457" cy="116" r="16" fill="rgba(255,255,255,0.033)" />
<circle cx="644" cy="59" r="33" fill="rgba(255,255,255,0.132)" />
<circle cx="507" cy="130" r="67" fill="rgba(255,255,255,0.138)" />
<circle cx="611" cy="220" r="62" fill="rgba(255,255,255,0.044)" />
<circle cx="106" cy="131" r="53" fill="rgba(255,255,255,0.122)" />
<circle cx="152" cy="144" r="54" fill="rgba(255,255,255,0.075)" />

  <line x1="47" y1="145" x2="-34" y2="125" stroke="rgba(255,255,255,0.101)" stroke-width="1" />
<line x1="783" y1="206" x2="835" y2="197" stroke="rgba(255,255,255,0.071)" stroke-width="1" />
<line x1="795" y1="134" x2="674" y2="167" stroke="rgba(255,255,255,0.067)" stroke-width="2" />
<line x1="58" y1="128" x2="-11" y2="15" stroke="rgba(255,255,255,0.063)" stroke-width="1" />
<line x1="570" y1="397" x2="588" y2="455" stroke="rgba(255,255,255,0.046)" stroke-width="2" />
<line x1="740" y1="136" x2="866" y2="208" stroke="rgba(255,255,255,0.062)" stroke-width="1" />
<line x1="267" y1="447" x2="245" y2="559" stroke="rgba(255,255,255,0.066)" stroke-width="1" />
<line x1="208" y1="108" x2="248" y2="137" stroke="rgba(255,255,255,0.091)" stroke-width="1" />
<line x1="641" y1="302" x2="790" y2="295" stroke="rgba(255,255,255,0.058)" stroke-width="2" />
<line x1="46" y1="316" x2="64" y2="200" stroke="rgba(255,255,255,0.058)" stroke-width="1" />
<line x1="579" y1="267" x2="663" y2="322" stroke="rgba(255,255,255,0.105)" stroke-width="1" />
<line x1="780" y1="56" x2="685" y2="87" stroke="rgba(255,255,255,0.09)" stroke-width="1" />
<line x1="27" y1="286" x2="-13" y2="151" stroke="rgba(255,255,255,0.115)" stroke-width="1" />
<line x1="79" y1="344" x2="37" y2="246" stroke="rgba(255,255,255,0.103)" stroke-width="1" />
<line x1="455" y1="248" x2="596" y2="287" stroke="rgba(255,255,255,0.088)" stroke-width="2" />

  <circle cx="258" cy="276" r="1.6009202376783056" fill="rgba(255,255,255,0.36)" />
<circle cx="29" cy="208" r="2.277479995781448" fill="rgba(255,255,255,0.16)" />
<circle cx="753" cy="21" r="1.5131413132786495" fill="rgba(255,255,255,0.15)" />
<circle cx="123" cy="369" r="1.7420809553598555" fill="rgba(255,255,255,0.27)" />
<circle cx="692" cy="102" r="1.5585966038025765" fill="rgba(255,255,255,0.19)" />
<circle cx="57" cy="248" r="1.661500209355336" fill="rgba(255,255,255,0.18)" />
<circle cx="782" cy="58" r="1.493926561516857" fill="rgba(255,255,255,0.28)" />
<circle cx="117" cy="83" r="2.6447614770958703" fill="rgba(255,255,255,0.34)" />
<circle cx="488" cy="271" r="2.0044876441657453" fill="rgba(255,255,255,0.23)" />
<circle cx="409" cy="45" r="1.2719003414471557" fill="rgba(255,255,255,0.38)" />
<circle cx="769" cy="436" r="1.01086195849015" fill="rgba(255,255,255,0.16)" />
<circle cx="235" cy="211" r="2.6144766411507248" fill="rgba(255,255,255,0.3)" />
<circle cx="288" cy="397" r="2.075342571215557" fill="rgba(255,255,255,0.23)" />
<circle cx="528" cy="332" r="1.0854926174661197" fill="rgba(255,255,255,0.18)" />
<circle cx="283" cy="184" r="2.6283200326235723" fill="rgba(255,255,255,0.37)" />
<circle cx="543" cy="106" r="1.7639185306946734" fill="rgba(255,255,255,0.3)" />
<circle cx="533" cy="448" r="2.055169490929094" fill="rgba(255,255,255,0.26)" />
<circle cx="488" cy="32" r="2.1674580290123675" fill="rgba(255,255,255,0.23)" />
<circle cx="520" cy="329" r="2.7783386872018707" fill="rgba(255,255,255,0.29)" />
<circle cx="597" cy="306" r="1.0506434971722562" fill="rgba(255,255,255,0.34)" />
<circle cx="539" cy="280" r="2.693817663488272" fill="rgba(255,255,255,0.29)" />
<circle cx="197" cy="280" r="2.2090469766605603" fill="rgba(255,255,255,0.15)" />
<circle cx="746" cy="284" r="2.3659309385360254" fill="rgba(255,255,255,0.18)" />
<circle cx="632" cy="156" r="2.8296325999349032" fill="rgba(255,255,255,0.3)" />
<circle cx="125" cy="129" r="2.077220638078767" fill="rgba(255,255,255,0.34)" />


  <!-- Top left: CyberNews badge -->
  <g>
    <rect x="32" y="28" rx="10" ry="10" width="150" height="36" fill="rgba(255,255,255,0.12)" />
    <text x="46" y="52" font-family="Arial,Helvetica,sans-serif" font-size="17"
          font-weight="800" fill="white" letter-spacing="1">CYBERNEWS</text>
  </g>

  <!-- Top right: icon badge -->
  <g opacity="0.25">
    <text x="720" y="65" font-family="Arial,sans-serif" font-size="42"
          fill="white" text-anchor="middle">&#9889;</text>
  </g>

  <!-- Main label -->
  <text x="46" y="260" font-family="Arial,Helvetica,sans-serif" font-size="48"
        font-weight="900" fill="white" letter-spacing="2">DATA BREACH</text>

  <!-- Subtitle -->
  <text x="46" y="295" font-family="Arial,Helvetica,sans-serif" font-size="18"
        font-weight="500" fill="rgba(255,255,255,0.8)">Credential Theft • Database Hack</text>

  <!-- Divider line -->
  <rect x="46" y="316" width="200" height="2" fill="rgba(255,255,255,0.5)" rx="1" />

  <!-- Code lines -->
  <text x="46" y="348" font-family="Courier New,monospace" font-size="14"
        fill="rgba(255,255,255,0.7)">&gt; exploit.execute()</text>
  <text x="46" y="372" font-family="Courier New,monospace" font-size="14"
        fill="rgba(255,255,255,0.5)">&gt; hash.verify(sha256)</text>

  <!-- Variant number watermark -->
  <g opacity="0.08">
    <text x="640" y="390" font-family="Arial,sans-serif" font-size="120"
          font-weight="900" fill="white">02</text>
  </g>

  <!-- Bottom accent line -->
  <rect x="0" y="444" width="800" height="6" fill="rgba(255,255,255,0.15)" />

</svg>