<svg xmlns="http://www.w3.org/2000/svg" width="800" height="450" viewBox="0 0 800 450">
  <defs>
    <linearGradient id="bg" x1="0" y1="0" x2="1" y2="1">
      <stop offset="0%" stop-color="#422006" />
      <stop offset="100%" stop-color="#d97706" />
    </linearGradient>
    <linearGradient id="shine" x1="0" y1="0" x2="0" y2="1">
      <stop offset="0%" stop-color="rgba(255,255,255,0.08)" />
      <stop offset="100%" stop-color="rgba(255,255,255,0)" />
    </linearGradient>
  </defs>

  <!-- Background gradient -->
  <rect width="800" height="450" fill="url(#bg)" />
  <rect width="800" height="225" fill="url(#shine)" />
  <rect width="800" height="450" fill="rgba(0,0,0,0.15)" />

  <!-- Grid pattern -->
  <g opacity="0.06">
    <path d="M0 50H800 M0 100H800 M0 150H800 M0 200H800 M0 250H800 M0 300H800 M0 350H800 M0 400H800"
          stroke="white" stroke-width="1" />
    <path d="M100 0V450 M200 0V450 M300 0V450 M400 0V450 M500 0V450 M600 0V450 M700 0V450"
          stroke="white" stroke-width="1" />
  </g>

  <!-- Decorative elements -->
  <circle cx="344" cy="66" r="23" fill="rgba(255,255,255,0.104)" />
<circle cx="47" cy="297" r="88" fill="rgba(255,255,255,0.092)" />
<circle cx="723" cy="427" r="77" fill="rgba(255,255,255,0.127)" />
<circle cx="341" cy="403" r="56" fill="rgba(255,255,255,0.126)" />
<circle cx="103" cy="179" r="59" fill="rgba(255,255,255,0.04)" />
<circle cx="110" cy="390" r="31" fill="rgba(255,255,255,0.11)" />
<circle cx="388" cy="269" r="43" fill="rgba(255,255,255,0.124)" />
<circle cx="308" cy="289" r="61" fill="rgba(255,255,255,0.131)" />

  <line x1="228" y1="287" x2="99" y2="405" stroke="rgba(255,255,255,0.102)" stroke-width="1" />
<line x1="268" y1="152" x2="202" y2="266" stroke="rgba(255,255,255,0.062)" stroke-width="2" />
<line x1="355" y1="166" x2="255" y2="39" stroke="rgba(255,255,255,0.077)" stroke-width="1" />
<line x1="130" y1="20" x2="77" y2="-65" stroke="rgba(255,255,255,0.115)" stroke-width="2" />
<line x1="592" y1="71" x2="570" y2="202" stroke="rgba(255,255,255,0.057)" stroke-width="2" />
<line x1="501" y1="262" x2="615" y2="378" stroke="rgba(255,255,255,0.065)" stroke-width="1" />
<line x1="175" y1="308" x2="104" y2="251" stroke="rgba(255,255,255,0.106)" stroke-width="1" />
<line x1="568" y1="277" x2="714" y2="244" stroke="rgba(255,255,255,0.104)" stroke-width="1" />
<line x1="301" y1="92" x2="472" y2="25" stroke="rgba(255,255,255,0.096)" stroke-width="2" />
<line x1="625" y1="126" x2="670" y2="160" stroke="rgba(255,255,255,0.064)" stroke-width="2" />

  <circle cx="653" cy="344" r="2.6640278509495845" fill="rgba(255,255,255,0.27)" />
<circle cx="658" cy="435" r="2.750344013112392" fill="rgba(255,255,255,0.25)" />
<circle cx="484" cy="237" r="2.5010443955153487" fill="rgba(255,255,255,0.38)" />
<circle cx="756" cy="138" r="1.0474284888074927" fill="rgba(255,255,255,0.3)" />
<circle cx="535" cy="345" r="1.414268362754809" fill="rgba(255,255,255,0.11)" />
<circle cx="225" cy="366" r="2.069095361827098" fill="rgba(255,255,255,0.36)" />
<circle cx="321" cy="113" r="2.341203301284107" fill="rgba(255,255,255,0.3)" />
<circle cx="312" cy="360" r="1.3432692784387887" fill="rgba(255,255,255,0.19)" />
<circle cx="69" cy="199" r="2.8195630401538025" fill="rgba(255,255,255,0.18)" />
<circle cx="231" cy="112" r="2.6367064872690875" fill="rgba(255,255,255,0.23)" />
<circle cx="18" cy="76" r="2.454202425302031" fill="rgba(255,255,255,0.19)" />
<circle cx="603" cy="302" r="2.979247511262378" fill="rgba(255,255,255,0.39)" />
<circle cx="217" cy="362" r="2.993675733300091" fill="rgba(255,255,255,0.26)" />
<circle cx="567" cy="220" r="2.0063242946795636" fill="rgba(255,255,255,0.36)" />
<circle cx="333" cy="137" r="2.4325336273510842" fill="rgba(255,255,255,0.36)" />
<circle cx="653" cy="268" r="1.0100037096227563" fill="rgba(255,255,255,0.3)" />
<circle cx="171" cy="173" r="1.8211240717042425" fill="rgba(255,255,255,0.31)" />
<circle cx="142" cy="40" r="2.5677647005255313" fill="rgba(255,255,255,0.3)" />
<circle cx="13" cy="223" r="2.9987224675421054" fill="rgba(255,255,255,0.21)" />
<circle cx="510" cy="235" r="1.031240785659962" fill="rgba(255,255,255,0.25)" />


  <!-- Top left: CyberNews badge -->
  <g>
    <rect x="32" y="28" rx="10" ry="10" width="150" height="36" fill="rgba(255,255,255,0.12)" />
    <text x="46" y="52" font-family="Arial,Helvetica,sans-serif" font-size="17"
          font-weight="800" fill="white" letter-spacing="1">CYBERNEWS</text>
  </g>

  <!-- Top right: icon badge -->
  <g opacity="0.25">
    <text x="720" y="65" font-family="Arial,sans-serif" font-size="42"
          fill="white" text-anchor="middle">&#128274;</text>
  </g>

  <!-- Main label -->
  <text x="46" y="260" font-family="Arial,Helvetica,sans-serif" font-size="48"
        font-weight="900" fill="white" letter-spacing="2">DATA BREACH</text>

  <!-- Subtitle -->
  <text x="46" y="295" font-family="Arial,Helvetica,sans-serif" font-size="18"
        font-weight="500" fill="rgba(255,255,255,0.8)">Records Exposed • Leak • Dump</text>

  <!-- Divider line -->
  <rect x="46" y="316" width="200" height="2" fill="rgba(255,255,255,0.5)" rx="1" />

  <!-- Code lines -->
  <text x="46" y="348" font-family="Courier New,monospace" font-size="14"
        fill="rgba(255,255,255,0.7)">&gt; patch.apply(cve)</text>
  <text x="46" y="372" font-family="Courier New,monospace" font-size="14"
        fill="rgba(255,255,255,0.5)">&gt; ids.alert(sig_id)</text>

  <!-- Variant number watermark -->
  <g opacity="0.08">
    <text x="640" y="380" font-family="Arial,sans-serif" font-size="120"
          font-weight="900" fill="white">09</text>
  </g>

  <!-- Bottom accent line -->
  <rect x="0" y="444" width="800" height="6" fill="rgba(255,255,255,0.15)" />

</svg>