<svg xmlns="http://www.w3.org/2000/svg" width="800" height="450" viewBox="0 0 800 450">
  <defs>
    <linearGradient id="g" x1="0" y1="0" x2="1" y2="1">
      <stop offset="0%" stop-color="#78350f" />
      <stop offset="100%" stop-color="#f97316" />
    </linearGradient>
  </defs>

  <rect width="800" height="450" fill="url(#g)" />
  <rect width="800" height="450" fill="rgba(0,0,0,0.18)" />

  <g opacity="0.08">
    <path d="M0 60 H800 M0 120 H800 M0 180 H800 M0 240 H800 M0 300 H800 M0 360 H800 M0 420 H800"
          stroke="white" stroke-width="1" />
    <path d="M80 0 V450 M160 0 V450 M240 0 V450 M320 0 V450 M400 0 V450 M480 0 V450 M560 0 V450 M640 0 V450 M720 0 V450"
          stroke="white" stroke-width="1" />
  </g>

  <circle cx="708" cy="378" r="61" fill="rgba(255,255,255,0.08)" /><circle cx="731" cy="254" r="52" fill="rgba(255,255,255,0.07)" /><circle cx="755" cy="250" r="50" fill="rgba(255,255,255,0.06)" /><circle cx="622" cy="295" r="65" fill="rgba(255,255,255,0.06)" /><circle cx="629" cy="115" r="12" fill="rgba(255,255,255,0.08)" /><circle cx="591" cy="153" r="41" fill="rgba(255,255,255,0.14)" /><circle cx="735" cy="279" r="33" fill="rgba(255,255,255,0.16)" />
  <line x1="295" y1="418" x2="454" y2="326" stroke="rgba(255,255,255,0.11)" stroke-width="1" /><line x1="333" y1="305" x2="369" y2="257" stroke="rgba(255,255,255,0.08)" stroke-width="1" /><line x1="155" y1="353" x2="57" y2="406" stroke="rgba(255,255,255,0.13)" stroke-width="1" /><line x1="511" y1="435" x2="658" y2="392" stroke="rgba(255,255,255,0.17)" stroke-width="1" /><line x1="186" y1="239" x2="130" y2="280" stroke="rgba(255,255,255,0.1)" stroke-width="1" /><line x1="441" y1="423" x2="414" y2="492" stroke="rgba(255,255,255,0.07)" stroke-width="1" /><line x1="700" y1="105" x2="722" y2="139" stroke="rgba(255,255,255,0.11)" stroke-width="1" /><line x1="452" y1="71" x2="490" y2="26" stroke="rgba(255,255,255,0.12)" stroke-width="1" /><line x1="267" y1="165" x2="329" y2="187" stroke="rgba(255,255,255,0.05)" stroke-width="1" /><line x1="317" y1="149" x2="170" y2="242" stroke="rgba(255,255,255,0.08)" stroke-width="1" /><line x1="129" y1="312" x2="303" y2="309" stroke="rgba(255,255,255,0.14)" stroke-width="1" /><line x1="211" y1="109" x2="160" y2="127" stroke="rgba(255,255,255,0.12)" stroke-width="1" /><line x1="671" y1="405" x2="516" y2="425" stroke="rgba(255,255,255,0.08)" stroke-width="1" /><line x1="144" y1="332" x2="210" y2="371" stroke="rgba(255,255,255,0.08)" stroke-width="1" />

  <g>
    <rect x="38" y="38" rx="14" ry="14" width="170" height="42" fill="rgba(255,255,255,0.12)" />
    <text x="55" y="65" font-family="Arial, Helvetica, sans-serif" font-size="20" font-weight="700" fill="white">
      CYBERNEWS
    </text>
  </g>

  <g>
    <text x="52" y="270" font-family="Arial, Helvetica, sans-serif" font-size="44" font-weight="900" fill="white">
      DATA BREACH
    </text>
    <text x="52" y="305" font-family="Arial, Helvetica, sans-serif" font-size="20" font-weight="500" fill="rgba(255,255,255,0.86)">
      Exposure • Leak • Compromise
    </text>
  </g>

  <g opacity="0.9">
    <rect x="52" y="332" width="180" height="2" fill="rgba(255,255,255,0.7)" />
    <text x="52" y="362" font-family="Courier New, monospace" font-size="16" fill="rgba(255,255,255,0.9)">
      &gt; intel.feed
    </text>
  </g>

  <g opacity="0.12">
    <text x="560" y="390" font-family="Arial, Helvetica, sans-serif" font-size="96" font-weight="900" fill="white">
      11
    </text>
  </g>
</svg>
