<svg xmlns="http://www.w3.org/2000/svg" width="800" height="450" viewBox="0 0 800 450">
  <defs>
    <linearGradient id="bg" x1="0" y1="0" x2="1" y2="1">
      <stop offset="0%" stop-color="#451a03" />
      <stop offset="100%" stop-color="#f59e0b" />
    </linearGradient>
    <linearGradient id="shine" x1="0" y1="0" x2="0" y2="1">
      <stop offset="0%" stop-color="rgba(255,255,255,0.08)" />
      <stop offset="100%" stop-color="rgba(255,255,255,0)" />
    </linearGradient>
  </defs>

  <!-- Background gradient -->
  <rect width="800" height="450" fill="url(#bg)" />
  <rect width="800" height="225" fill="url(#shine)" />
  <rect width="800" height="450" fill="rgba(0,0,0,0.15)" />

  <!-- Grid pattern -->
  <g opacity="0.06">
    <path d="M0 50H800 M0 100H800 M0 150H800 M0 200H800 M0 250H800 M0 300H800 M0 350H800 M0 400H800"
          stroke="white" stroke-width="1" />
    <path d="M100 0V450 M200 0V450 M300 0V450 M400 0V450 M500 0V450 M600 0V450 M700 0V450"
          stroke="white" stroke-width="1" />
  </g>

  <!-- Decorative elements -->
  <circle cx="109" cy="21" r="76" fill="rgba(255,255,255,0.133)" />
<circle cx="452" cy="371" r="22" fill="rgba(255,255,255,0.139)" />
<circle cx="98" cy="318" r="94" fill="rgba(255,255,255,0.104)" />
<circle cx="432" cy="307" r="51" fill="rgba(255,255,255,0.102)" />
<circle cx="572" cy="93" r="62" fill="rgba(255,255,255,0.108)" />
<circle cx="536" cy="170" r="29" fill="rgba(255,255,255,0.096)" />
<circle cx="774" cy="233" r="31" fill="rgba(255,255,255,0.064)" />
<circle cx="532" cy="166" r="51" fill="rgba(255,255,255,0.09)" />
<circle cx="453" cy="158" r="85" fill="rgba(255,255,255,0.116)" />
<circle cx="280" cy="218" r="20" fill="rgba(255,255,255,0.094)" />
<circle cx="131" cy="180" r="17" fill="rgba(255,255,255,0.103)" />
<circle cx="624" cy="386" r="15" fill="rgba(255,255,255,0.117)" />

  <line x1="226" y1="173" x2="214" y2="316" stroke="rgba(255,255,255,0.088)" stroke-width="2" />
<line x1="751" y1="51" x2="644" y2="99" stroke="rgba(255,255,255,0.084)" stroke-width="1" />
<line x1="4" y1="266" x2="86" y2="393" stroke="rgba(255,255,255,0.051)" stroke-width="1" />
<line x1="320" y1="66" x2="267" y2="46" stroke="rgba(255,255,255,0.074)" stroke-width="1" />
<line x1="295" y1="92" x2="168" y2="162" stroke="rgba(255,255,255,0.087)" stroke-width="1" />
<line x1="380" y1="299" x2="454" y2="416" stroke="rgba(255,255,255,0.092)" stroke-width="1" />
<line x1="723" y1="53" x2="658" y2="-55" stroke="rgba(255,255,255,0.073)" stroke-width="1" />
<line x1="251" y1="221" x2="61" y2="360" stroke="rgba(255,255,255,0.044)" stroke-width="1" />
<line x1="607" y1="80" x2="733" y2="115" stroke="rgba(255,255,255,0.075)" stroke-width="2" />
<line x1="725" y1="361" x2="755" y2="503" stroke="rgba(255,255,255,0.09)" stroke-width="1" />

  <circle cx="128" cy="411" r="1.0963407337051962" fill="rgba(255,255,255,0.16)" />
<circle cx="182" cy="128" r="2.2073074282705485" fill="rgba(255,255,255,0.4)" />
<circle cx="619" cy="383" r="1.9376229064905772" fill="rgba(255,255,255,0.14)" />
<circle cx="185" cy="380" r="2.677501042117638" fill="rgba(255,255,255,0.21)" />
<circle cx="154" cy="322" r="2.340390133571396" fill="rgba(255,255,255,0.19)" />
<circle cx="512" cy="400" r="1.1674540015230725" fill="rgba(255,255,255,0.26)" />
<circle cx="446" cy="235" r="2.1705430380170956" fill="rgba(255,255,255,0.16)" />
<circle cx="743" cy="308" r="1.8670215645097812" fill="rgba(255,255,255,0.19)" />
<circle cx="24" cy="88" r="1.341104776176566" fill="rgba(255,255,255,0.35)" />
<circle cx="771" cy="82" r="2.6987439905059363" fill="rgba(255,255,255,0.28)" />
<circle cx="622" cy="310" r="2.082482059196895" fill="rgba(255,255,255,0.22)" />
<circle cx="236" cy="230" r="2.413185483811402" fill="rgba(255,255,255,0.26)" />
<circle cx="58" cy="407" r="1.9707628749537764" fill="rgba(255,255,255,0.31)" />
<circle cx="363" cy="8" r="2.737185497255302" fill="rgba(255,255,255,0.37)" />
<circle cx="661" cy="68" r="2.216553200129013" fill="rgba(255,255,255,0.1)" />
<circle cx="31" cy="145" r="1.0144988300387368" fill="rgba(255,255,255,0.4)" />
<circle cx="795" cy="422" r="1.3270580771989389" fill="rgba(255,255,255,0.31)" />
<circle cx="317" cy="235" r="1.5997928051680523" fill="rgba(255,255,255,0.17)" />
<circle cx="72" cy="398" r="1.253548651889104" fill="rgba(255,255,255,0.32)" />
<circle cx="421" cy="405" r="1.5649384403039404" fill="rgba(255,255,255,0.19)" />
<circle cx="320" cy="49" r="1.0466350136287421" fill="rgba(255,255,255,0.32)" />
<circle cx="566" cy="344" r="1.721148791642939" fill="rgba(255,255,255,0.38)" />
<circle cx="288" cy="160" r="1.3435657805115993" fill="rgba(255,255,255,0.12)" />
<circle cx="411" cy="416" r="2.190710844081063" fill="rgba(255,255,255,0.37)" />
<circle cx="503" cy="282" r="2.534902291793533" fill="rgba(255,255,255,0.29)" />
<circle cx="392" cy="409" r="1.624595061491918" fill="rgba(255,255,255,0.26)" />
<circle cx="244" cy="61" r="2.3138485536866815" fill="rgba(255,255,255,0.16)" />
<circle cx="46" cy="315" r="1.0810418915629154" fill="rgba(255,255,255,0.18)" />


  <!-- Top left: CyberNews badge -->
  <g>
    <rect x="32" y="28" rx="10" ry="10" width="150" height="36" fill="rgba(255,255,255,0.12)" />
    <text x="46" y="52" font-family="Arial,Helvetica,sans-serif" font-size="17"
          font-weight="800" fill="white" letter-spacing="1">CYBERNEWS</text>
  </g>

  <!-- Top right: icon badge -->
  <g opacity="0.25">
    <text x="720" y="65" font-family="Arial,sans-serif" font-size="42"
          fill="white" text-anchor="middle">&#128272;</text>
  </g>

  <!-- Main label -->
  <text x="46" y="260" font-family="Arial,Helvetica,sans-serif" font-size="48"
        font-weight="900" fill="white" letter-spacing="2">DATA BREACH</text>

  <!-- Subtitle -->
  <text x="46" y="295" font-family="Arial,Helvetica,sans-serif" font-size="18"
        font-weight="500" fill="rgba(255,255,255,0.8)">Unauthorized Access • Compromise</text>

  <!-- Divider line -->
  <rect x="46" y="316" width="200" height="2" fill="rgba(255,255,255,0.5)" rx="1" />

  <!-- Code lines -->
  <text x="46" y="348" font-family="Courier New,monospace" font-size="14"
        fill="rgba(255,255,255,0.7)">&gt; log.monitor(auth)</text>
  <text x="46" y="372" font-family="Courier New,monospace" font-size="14"
        fill="rgba(255,255,255,0.5)">&gt; auth.verify(token)</text>

  <!-- Variant number watermark -->
  <g opacity="0.08">
    <text x="620" y="380" font-family="Arial,sans-serif" font-size="120"
          font-weight="900" fill="white">07</text>
  </g>

  <!-- Bottom accent line -->
  <rect x="0" y="444" width="800" height="6" fill="rgba(255,255,255,0.15)" />

</svg>