<svg xmlns="http://www.w3.org/2000/svg" width="800" height="450" viewBox="0 0 800 450">
  <defs>
    <linearGradient id="g" x1="0" y1="0" x2="1" y2="1">
      <stop offset="0%" stop-color="#022c22" />
      <stop offset="100%" stop-color="#22c55e" />
    </linearGradient>
  </defs>

  <rect width="800" height="450" fill="url(#g)" />
  <rect width="800" height="450" fill="rgba(0,0,0,0.18)" />

  <g opacity="0.08">
    <path d="M0 60 H800 M0 120 H800 M0 180 H800 M0 240 H800 M0 300 H800 M0 360 H800 M0 420 H800"
          stroke="white" stroke-width="1" />
    <path d="M80 0 V450 M160 0 V450 M240 0 V450 M320 0 V450 M400 0 V450 M480 0 V450 M560 0 V450 M640 0 V450 M720 0 V450"
          stroke="white" stroke-width="1" />
  </g>

  <circle cx="166" cy="184" r="35" fill="rgba(255,255,255,0.18)" /><circle cx="263" cy="75" r="30" fill="rgba(255,255,255,0.12)" /><circle cx="704" cy="197" r="71" fill="rgba(255,255,255,0.17)" /><circle cx="528" cy="226" r="47" fill="rgba(255,255,255,0.15)" /><circle cx="64" cy="355" r="79" fill="rgba(255,255,255,0.13)" /><circle cx="495" cy="244" r="14" fill="rgba(255,255,255,0.13)" /><circle cx="192" cy="234" r="57" fill="rgba(255,255,255,0.18)" />
  <line x1="585" y1="3" x2="664" y2="-93" stroke="rgba(255,255,255,0.1)" stroke-width="1" /><line x1="704" y1="59" x2="627" y2="116" stroke="rgba(255,255,255,0.06)" stroke-width="1" /><line x1="752" y1="38" x2="914" y2="99" stroke="rgba(255,255,255,0.15)" stroke-width="1" /><line x1="493" y1="380" x2="641" y2="396" stroke="rgba(255,255,255,0.17)" stroke-width="1" /><line x1="662" y1="367" x2="754" y2="299" stroke="rgba(255,255,255,0.11)" stroke-width="1" /><line x1="229" y1="418" x2="70" y2="528" stroke="rgba(255,255,255,0.13)" stroke-width="1" /><line x1="638" y1="375" x2="756" y2="363" stroke="rgba(255,255,255,0.1)" stroke-width="1" /><line x1="45" y1="217" x2="-37" y2="279" stroke="rgba(255,255,255,0.16)" stroke-width="1" /><line x1="226" y1="297" x2="386" y2="320" stroke="rgba(255,255,255,0.1)" stroke-width="1" /><line x1="65" y1="6" x2="24" y2="19" stroke="rgba(255,255,255,0.08)" stroke-width="1" /><line x1="701" y1="167" x2="678" y2="105" stroke="rgba(255,255,255,0.09)" stroke-width="1" /><line x1="228" y1="268" x2="372" y2="351" stroke="rgba(255,255,255,0.15)" stroke-width="1" /><line x1="769" y1="361" x2="848" y2="479" stroke="rgba(255,255,255,0.09)" stroke-width="1" /><line x1="417" y1="181" x2="301" y2="285" stroke="rgba(255,255,255,0.11)" stroke-width="1" />

  <g>
    <rect x="38" y="38" rx="14" ry="14" width="170" height="42" fill="rgba(255,255,255,0.12)" />
    <text x="55" y="65" font-family="Arial, Helvetica, sans-serif" font-size="20" font-weight="700" fill="white">
      CYBERNEWS
    </text>
  </g>

  <g>
    <text x="52" y="270" font-family="Arial, Helvetica, sans-serif" font-size="44" font-weight="900" fill="white">
      RESEARCH
    </text>
    <text x="52" y="305" font-family="Arial, Helvetica, sans-serif" font-size="20" font-weight="500" fill="rgba(255,255,255,0.86)">
      Analysis • Report • Tooling
    </text>
  </g>

  <g opacity="0.9">
    <rect x="52" y="332" width="180" height="2" fill="rgba(255,255,255,0.7)" />
    <text x="52" y="362" font-family="Courier New, monospace" font-size="16" fill="rgba(255,255,255,0.9)">
      &gt; forensics
    </text>
  </g>

  <g opacity="0.12">
    <text x="560" y="390" font-family="Arial, Helvetica, sans-serif" font-size="96" font-weight="900" fill="white">
      09
    </text>
  </g>
</svg>
