<svg xmlns="http://www.w3.org/2000/svg" width="800" height="450" viewBox="0 0 800 450">
  <defs>
    <linearGradient id="g" x1="0" y1="0" x2="1" y2="1">
      <stop offset="0%" stop-color="#172554" />
      <stop offset="100%" stop-color="#2563eb" />
    </linearGradient>
  </defs>

  <rect width="800" height="450" fill="url(#g)" />
  <rect width="800" height="450" fill="rgba(0,0,0,0.18)" />

  <g opacity="0.08">
    <path d="M0 60 H800 M0 120 H800 M0 180 H800 M0 240 H800 M0 300 H800 M0 360 H800 M0 420 H800"
          stroke="white" stroke-width="1" />
    <path d="M80 0 V450 M160 0 V450 M240 0 V450 M320 0 V450 M400 0 V450 M480 0 V450 M560 0 V450 M640 0 V450 M720 0 V450"
          stroke="white" stroke-width="1" />
  </g>

  <circle cx="325" cy="164" r="35" fill="rgba(255,255,255,0.07)" /><circle cx="520" cy="108" r="14" fill="rgba(255,255,255,0.16)" /><circle cx="63" cy="333" r="53" fill="rgba(255,255,255,0.12)" /><circle cx="461" cy="75" r="41" fill="rgba(255,255,255,0.07)" /><circle cx="447" cy="119" r="65" fill="rgba(255,255,255,0.05)" /><circle cx="209" cy="57" r="18" fill="rgba(255,255,255,0.11)" /><circle cx="339" cy="80" r="46" fill="rgba(255,255,255,0.05)" />
  <line x1="292" y1="40" x2="220" y2="154" stroke="rgba(255,255,255,0.15)" stroke-width="1" /><line x1="254" y1="326" x2="118" y2="210" stroke="rgba(255,255,255,0.17)" stroke-width="1" /><line x1="247" y1="222" x2="175" y2="284" stroke="rgba(255,255,255,0.06)" stroke-width="1" /><line x1="623" y1="422" x2="578" y2="443" stroke="rgba(255,255,255,0.15)" stroke-width="1" /><line x1="417" y1="47" x2="286" y2="15" stroke="rgba(255,255,255,0.16)" stroke-width="1" /><line x1="681" y1="271" x2="696" y2="209" stroke="rgba(255,255,255,0.13)" stroke-width="1" /><line x1="339" y1="3" x2="462" y2="-115" stroke="rgba(255,255,255,0.07)" stroke-width="1" /><line x1="235" y1="0" x2="102" y2="24" stroke="rgba(255,255,255,0.14)" stroke-width="1" /><line x1="622" y1="292" x2="576" y2="375" stroke="rgba(255,255,255,0.06)" stroke-width="1" /><line x1="121" y1="41" x2="149" y2="71" stroke="rgba(255,255,255,0.05)" stroke-width="1" /><line x1="183" y1="87" x2="146" y2="74" stroke="rgba(255,255,255,0.12)" stroke-width="1" /><line x1="315" y1="346" x2="222" y2="248" stroke="rgba(255,255,255,0.07)" stroke-width="1" /><line x1="337" y1="162" x2="182" y2="45" stroke="rgba(255,255,255,0.14)" stroke-width="1" /><line x1="669" y1="32" x2="660" y2="104" stroke="rgba(255,255,255,0.05)" stroke-width="1" />

  <g>
    <rect x="38" y="38" rx="14" ry="14" width="170" height="42" fill="rgba(255,255,255,0.12)" />
    <text x="55" y="65" font-family="Arial, Helvetica, sans-serif" font-size="20" font-weight="700" fill="white">
      CYBERNEWS
    </text>
  </g>

  <g>
    <text x="52" y="270" font-family="Arial, Helvetica, sans-serif" font-size="44" font-weight="900" fill="white">
      PRIVACY
    </text>
    <text x="52" y="305" font-family="Arial, Helvetica, sans-serif" font-size="20" font-weight="500" fill="rgba(255,255,255,0.86)">
      Tracking • Data • Surveillance
    </text>
  </g>

  <g opacity="0.9">
    <rect x="52" y="332" width="180" height="2" fill="rgba(255,255,255,0.7)" />
    <text x="52" y="362" font-family="Courier New, monospace" font-size="16" fill="rgba(255,255,255,0.9)">
      &gt; CVE-XXXX-XXXX
    </text>
  </g>

  <g opacity="0.12">
    <text x="560" y="390" font-family="Arial, Helvetica, sans-serif" font-size="96" font-weight="900" fill="white">
      06
    </text>
  </g>
</svg>
