<svg xmlns="http://www.w3.org/2000/svg" width="800" height="450" viewBox="0 0 800 450">
  <defs>
    <linearGradient id="bg" x1="0" y1="0" x2="1" y2="1">
      <stop offset="0%" stop-color="#082f49" />
      <stop offset="100%" stop-color="#3b82f6" />
    </linearGradient>
    <linearGradient id="shine" x1="0" y1="0" x2="0" y2="1">
      <stop offset="0%" stop-color="rgba(255,255,255,0.08)" />
      <stop offset="100%" stop-color="rgba(255,255,255,0)" />
    </linearGradient>
  </defs>

  <!-- Background gradient -->
  <rect width="800" height="450" fill="url(#bg)" />
  <rect width="800" height="225" fill="url(#shine)" />
  <rect width="800" height="450" fill="rgba(0,0,0,0.15)" />

  <!-- Grid pattern -->
  <g opacity="0.06">
    <path d="M0 50H800 M0 100H800 M0 150H800 M0 200H800 M0 250H800 M0 300H800 M0 350H800 M0 400H800"
          stroke="white" stroke-width="1" />
    <path d="M100 0V450 M200 0V450 M300 0V450 M400 0V450 M500 0V450 M600 0V450 M700 0V450"
          stroke="white" stroke-width="1" />
  </g>

  <!-- Decorative elements -->
  <circle cx="721" cy="268" r="31" fill="rgba(255,255,255,0.046)" />
<circle cx="742" cy="86" r="13" fill="rgba(255,255,255,0.06)" />
<circle cx="341" cy="154" r="78" fill="rgba(255,255,255,0.075)" />
<circle cx="184" cy="419" r="99" fill="rgba(255,255,255,0.071)" />
<circle cx="254" cy="159" r="94" fill="rgba(255,255,255,0.133)" />
<circle cx="448" cy="428" r="43" fill="rgba(255,255,255,0.046)" />
<circle cx="257" cy="321" r="71" fill="rgba(255,255,255,0.042)" />
<circle cx="463" cy="330" r="66" fill="rgba(255,255,255,0.123)" />
<circle cx="441" cy="274" r="52" fill="rgba(255,255,255,0.123)" />
<circle cx="604" cy="194" r="38" fill="rgba(255,255,255,0.109)" />
<circle cx="404" cy="106" r="71" fill="rgba(255,255,255,0.118)" />

  <line x1="17" y1="119" x2="38" y2="260" stroke="rgba(255,255,255,0.061)" stroke-width="2" />
<line x1="200" y1="443" x2="284" y2="396" stroke="rgba(255,255,255,0.067)" stroke-width="2" />
<line x1="71" y1="348" x2="2" y2="424" stroke="rgba(255,255,255,0.089)" stroke-width="1" />
<line x1="590" y1="314" x2="471" y2="240" stroke="rgba(255,255,255,0.042)" stroke-width="1" />
<line x1="120" y1="364" x2="150" y2="274" stroke="rgba(255,255,255,0.08)" stroke-width="1" />
<line x1="130" y1="360" x2="189" y2="419" stroke="rgba(255,255,255,0.068)" stroke-width="2" />
<line x1="152" y1="130" x2="271" y2="76" stroke="rgba(255,255,255,0.075)" stroke-width="1" />
<line x1="306" y1="210" x2="337" y2="244" stroke="rgba(255,255,255,0.089)" stroke-width="1" />
<line x1="442" y1="144" x2="598" y2="251" stroke="rgba(255,255,255,0.077)" stroke-width="1" />

  <circle cx="679" cy="311" r="1.920526478760103" fill="rgba(255,255,255,0.23)" />
<circle cx="436" cy="268" r="2.744353762592783" fill="rgba(255,255,255,0.16)" />
<circle cx="132" cy="47" r="2.810865786020943" fill="rgba(255,255,255,0.36)" />
<circle cx="751" cy="395" r="1.3590869112996278" fill="rgba(255,255,255,0.12)" />
<circle cx="266" cy="20" r="1.83479881780865" fill="rgba(255,255,255,0.23)" />
<circle cx="472" cy="143" r="1.8952815699866623" fill="rgba(255,255,255,0.22)" />
<circle cx="463" cy="115" r="1.333166790692846" fill="rgba(255,255,255,0.29)" />
<circle cx="584" cy="328" r="2.066256525587718" fill="rgba(255,255,255,0.38)" />
<circle cx="132" cy="402" r="2.628220965776584" fill="rgba(255,255,255,0.11)" />
<circle cx="392" cy="410" r="1.0349041456328023" fill="rgba(255,255,255,0.39)" />
<circle cx="508" cy="398" r="1.8575413823488118" fill="rgba(255,255,255,0.15)" />
<circle cx="28" cy="361" r="1.0151184132225672" fill="rgba(255,255,255,0.34)" />
<circle cx="307" cy="240" r="2.7093164605039" fill="rgba(255,255,255,0.39)" />
<circle cx="449" cy="172" r="1.6751177074934196" fill="rgba(255,255,255,0.14)" />
<circle cx="403" cy="403" r="1.2424437488821571" fill="rgba(255,255,255,0.33)" />
<circle cx="331" cy="231" r="2.3668540621245433" fill="rgba(255,255,255,0.34)" />
<circle cx="28" cy="384" r="1.3621455096399122" fill="rgba(255,255,255,0.11)" />
<circle cx="449" cy="391" r="2.2244522421815285" fill="rgba(255,255,255,0.11)" />
<circle cx="220" cy="34" r="1.8126403566981506" fill="rgba(255,255,255,0.32)" />


  <!-- Top left: CyberNews badge -->
  <g>
    <rect x="32" y="28" rx="10" ry="10" width="150" height="36" fill="rgba(255,255,255,0.12)" />
    <text x="46" y="52" font-family="Arial,Helvetica,sans-serif" font-size="17"
          font-weight="800" fill="white" letter-spacing="1">CYBERNEWS</text>
  </g>

  <!-- Top right: icon badge -->
  <g opacity="0.25">
    <text x="720" y="65" font-family="Arial,sans-serif" font-size="42"
          fill="white" text-anchor="middle">&#128065;</text>
  </g>

  <!-- Main label -->
  <text x="46" y="260" font-family="Arial,Helvetica,sans-serif" font-size="48"
        font-weight="900" fill="white" letter-spacing="2">PRIVACY</text>

  <!-- Subtitle -->
  <text x="46" y="295" font-family="Arial,Helvetica,sans-serif" font-size="18"
        font-weight="500" fill="rgba(255,255,255,0.8)">GDPR • Data Protection • Rights</text>

  <!-- Divider line -->
  <rect x="46" y="316" width="200" height="2" fill="rgba(255,255,255,0.5)" rx="1" />

  <!-- Code lines -->
  <text x="46" y="348" font-family="Courier New,monospace" font-size="14"
        fill="rgba(255,255,255,0.7)">&gt; firewall.block(ip)</text>
  <text x="46" y="372" font-family="Courier New,monospace" font-size="14"
        fill="rgba(255,255,255,0.5)">&gt; CVE-2025-XXXX</text>

  <!-- Variant number watermark -->
  <g opacity="0.08">
    <text x="580" y="390" font-family="Arial,sans-serif" font-size="120"
          font-weight="900" fill="white">13</text>
  </g>

  <!-- Bottom accent line -->
  <rect x="0" y="444" width="800" height="6" fill="rgba(255,255,255,0.15)" />

</svg>