<svg xmlns="http://www.w3.org/2000/svg" width="800" height="450" viewBox="0 0 800 450">
  <defs>
    <linearGradient id="g" x1="0" y1="0" x2="1" y2="1">
      <stop offset="0%" stop-color="#172554" />
      <stop offset="100%" stop-color="#2563eb" />
    </linearGradient>
  </defs>

  <rect width="800" height="450" fill="url(#g)" />
  <rect width="800" height="450" fill="rgba(0,0,0,0.18)" />

  <g opacity="0.08">
    <path d="M0 60 H800 M0 120 H800 M0 180 H800 M0 240 H800 M0 300 H800 M0 360 H800 M0 420 H800"
          stroke="white" stroke-width="1" />
    <path d="M80 0 V450 M160 0 V450 M240 0 V450 M320 0 V450 M400 0 V450 M480 0 V450 M560 0 V450 M640 0 V450 M720 0 V450"
          stroke="white" stroke-width="1" />
  </g>

  <circle cx="278" cy="283" r="44" fill="rgba(255,255,255,0.17)" /><circle cx="621" cy="370" r="33" fill="rgba(255,255,255,0.16)" /><circle cx="528" cy="370" r="20" fill="rgba(255,255,255,0.05)" /><circle cx="139" cy="299" r="19" fill="rgba(255,255,255,0.05)" /><circle cx="742" cy="264" r="51" fill="rgba(255,255,255,0.17)" /><circle cx="720" cy="63" r="71" fill="rgba(255,255,255,0.05)" /><circle cx="696" cy="408" r="37" fill="rgba(255,255,255,0.13)" />
  <line x1="677" y1="154" x2="709" y2="34" stroke="rgba(255,255,255,0.14)" stroke-width="1" /><line x1="270" y1="14" x2="297" y2="65" stroke="rgba(255,255,255,0.16)" stroke-width="1" /><line x1="36" y1="414" x2="43" y2="402" stroke="rgba(255,255,255,0.06)" stroke-width="1" /><line x1="115" y1="216" x2="227" y2="228" stroke="rgba(255,255,255,0.05)" stroke-width="1" /><line x1="38" y1="450" x2="73" y2="417" stroke="rgba(255,255,255,0.17)" stroke-width="1" /><line x1="312" y1="223" x2="290" y2="290" stroke="rgba(255,255,255,0.16)" stroke-width="1" /><line x1="753" y1="286" x2="699" y2="276" stroke="rgba(255,255,255,0.13)" stroke-width="1" /><line x1="497" y1="7" x2="459" y2="16" stroke="rgba(255,255,255,0.08)" stroke-width="1" /><line x1="509" y1="403" x2="455" y2="340" stroke="rgba(255,255,255,0.13)" stroke-width="1" /><line x1="529" y1="152" x2="681" y2="138" stroke="rgba(255,255,255,0.1)" stroke-width="1" /><line x1="98" y1="62" x2="-38" y2="13" stroke="rgba(255,255,255,0.09)" stroke-width="1" /><line x1="372" y1="19" x2="373" y2="117" stroke="rgba(255,255,255,0.09)" stroke-width="1" /><line x1="525" y1="283" x2="483" y2="215" stroke="rgba(255,255,255,0.12)" stroke-width="1" /><line x1="608" y1="444" x2="494" y2="425" stroke="rgba(255,255,255,0.1)" stroke-width="1" />

  <g>
    <rect x="38" y="38" rx="14" ry="14" width="170" height="42" fill="rgba(255,255,255,0.12)" />
    <text x="55" y="65" font-family="Arial, Helvetica, sans-serif" font-size="20" font-weight="700" fill="white">
      CYBERNEWS
    </text>
  </g>

  <g>
    <text x="52" y="270" font-family="Arial, Helvetica, sans-serif" font-size="44" font-weight="900" fill="white">
      PRIVACY
    </text>
    <text x="52" y="305" font-family="Arial, Helvetica, sans-serif" font-size="20" font-weight="500" fill="rgba(255,255,255,0.86)">
      Tracking • Data • Surveillance
    </text>
  </g>

  <g opacity="0.9">
    <rect x="52" y="332" width="180" height="2" fill="rgba(255,255,255,0.7)" />
    <text x="52" y="362" font-family="Courier New, monospace" font-size="16" fill="rgba(255,255,255,0.9)">
      &gt; CVE-XXXX-XXXX
    </text>
  </g>

  <g opacity="0.12">
    <text x="560" y="390" font-family="Arial, Helvetica, sans-serif" font-size="96" font-weight="900" fill="white">
      03
    </text>
  </g>
</svg>
