<svg xmlns="http://www.w3.org/2000/svg" width="800" height="450" viewBox="0 0 800 450">
  <defs>
    <linearGradient id="g" x1="0" y1="0" x2="1" y2="1">
      <stop offset="0%" stop-color="#431407" />
      <stop offset="100%" stop-color="#f97316" />
    </linearGradient>
  </defs>

  <rect width="800" height="450" fill="url(#g)" />
  <rect width="800" height="450" fill="rgba(0,0,0,0.18)" />

  <g opacity="0.08">
    <path d="M0 60 H800 M0 120 H800 M0 180 H800 M0 240 H800 M0 300 H800 M0 360 H800 M0 420 H800"
          stroke="white" stroke-width="1" />
    <path d="M80 0 V450 M160 0 V450 M240 0 V450 M320 0 V450 M400 0 V450 M480 0 V450 M560 0 V450 M640 0 V450 M720 0 V450"
          stroke="white" stroke-width="1" />
  </g>

  <circle cx="341" cy="254" r="66" fill="rgba(255,255,255,0.07)" /><circle cx="722" cy="382" r="13" fill="rgba(255,255,255,0.11)" /><circle cx="277" cy="273" r="14" fill="rgba(255,255,255,0.16)" /><circle cx="671" cy="405" r="68" fill="rgba(255,255,255,0.17)" /><circle cx="55" cy="132" r="29" fill="rgba(255,255,255,0.1)" /><circle cx="353" cy="57" r="56" fill="rgba(255,255,255,0.1)" /><circle cx="92" cy="314" r="34" fill="rgba(255,255,255,0.16)" />
  <line x1="367" y1="333" x2="193" y2="434" stroke="rgba(255,255,255,0.18)" stroke-width="1" /><line x1="260" y1="406" x2="415" y2="484" stroke="rgba(255,255,255,0.13)" stroke-width="1" /><line x1="759" y1="294" x2="844" y2="396" stroke="rgba(255,255,255,0.06)" stroke-width="1" /><line x1="431" y1="345" x2="347" y2="249" stroke="rgba(255,255,255,0.16)" stroke-width="1" /><line x1="278" y1="307" x2="265" y2="423" stroke="rgba(255,255,255,0.16)" stroke-width="1" /><line x1="178" y1="56" x2="179" y2="96" stroke="rgba(255,255,255,0.08)" stroke-width="1" /><line x1="715" y1="60" x2="849" y2="-6" stroke="rgba(255,255,255,0.17)" stroke-width="1" /><line x1="583" y1="363" x2="493" y2="468" stroke="rgba(255,255,255,0.1)" stroke-width="1" /><line x1="640" y1="87" x2="635" y2="91" stroke="rgba(255,255,255,0.11)" stroke-width="1" /><line x1="676" y1="438" x2="666" y2="418" stroke="rgba(255,255,255,0.17)" stroke-width="1" /><line x1="323" y1="360" x2="331" y2="456" stroke="rgba(255,255,255,0.06)" stroke-width="1" /><line x1="259" y1="136" x2="313" y2="57" stroke="rgba(255,255,255,0.06)" stroke-width="1" /><line x1="229" y1="101" x2="206" y2="66" stroke="rgba(255,255,255,0.07)" stroke-width="1" /><line x1="792" y1="308" x2="949" y2="347" stroke="rgba(255,255,255,0.11)" stroke-width="1" />

  <g>
    <rect x="38" y="38" rx="14" ry="14" width="170" height="42" fill="rgba(255,255,255,0.12)" />
    <text x="55" y="65" font-family="Arial, Helvetica, sans-serif" font-size="20" font-weight="700" fill="white">
      CYBERNEWS
    </text>
  </g>

  <g>
    <text x="52" y="270" font-family="Arial, Helvetica, sans-serif" font-size="44" font-weight="900" fill="white">
      THREAT INTEL
    </text>
    <text x="52" y="305" font-family="Arial, Helvetica, sans-serif" font-size="20" font-weight="500" fill="rgba(255,255,255,0.86)">
      APT • Phishing • DDoS
    </text>
  </g>

  <g opacity="0.9">
    <rect x="52" y="332" width="180" height="2" fill="rgba(255,255,255,0.7)" />
    <text x="52" y="362" font-family="Courier New, monospace" font-size="16" fill="rgba(255,255,255,0.9)">
      &gt; IOC matched
    </text>
  </g>

  <g opacity="0.12">
    <text x="560" y="390" font-family="Arial, Helvetica, sans-serif" font-size="96" font-weight="900" fill="white">
      16
    </text>
  </g>
</svg>
