<svg xmlns="http://www.w3.org/2000/svg" width="800" height="450" viewBox="0 0 800 450">
  <defs>
    <linearGradient id="g" x1="0" y1="0" x2="1" y2="1">
      <stop offset="0%" stop-color="#4a044e" />
      <stop offset="100%" stop-color="#ec4899" />
    </linearGradient>
  </defs>

  <rect width="800" height="450" fill="url(#g)" />
  <rect width="800" height="450" fill="rgba(0,0,0,0.18)" />

  <g opacity="0.08">
    <path d="M0 60 H800 M0 120 H800 M0 180 H800 M0 240 H800 M0 300 H800 M0 360 H800 M0 420 H800"
          stroke="white" stroke-width="1" />
    <path d="M80 0 V450 M160 0 V450 M240 0 V450 M320 0 V450 M400 0 V450 M480 0 V450 M560 0 V450 M640 0 V450 M720 0 V450"
          stroke="white" stroke-width="1" />
  </g>

  <circle cx="607" cy="209" r="28" fill="rgba(255,255,255,0.17)" /><circle cx="282" cy="204" r="41" fill="rgba(255,255,255,0.09)" /><circle cx="58" cy="134" r="58" fill="rgba(255,255,255,0.13)" /><circle cx="691" cy="367" r="14" fill="rgba(255,255,255,0.12)" /><circle cx="198" cy="362" r="60" fill="rgba(255,255,255,0.06)" /><circle cx="89" cy="125" r="13" fill="rgba(255,255,255,0.07)" /><circle cx="570" cy="51" r="21" fill="rgba(255,255,255,0.12)" />
  <line x1="651" y1="19" x2="704" y2="120" stroke="rgba(255,255,255,0.15)" stroke-width="1" /><line x1="475" y1="287" x2="651" y2="319" stroke="rgba(255,255,255,0.15)" stroke-width="1" /><line x1="59" y1="20" x2="-112" y2="67" stroke="rgba(255,255,255,0.07)" stroke-width="1" /><line x1="205" y1="218" x2="316" y2="139" stroke="rgba(255,255,255,0.13)" stroke-width="1" /><line x1="213" y1="394" x2="116" y2="347" stroke="rgba(255,255,255,0.13)" stroke-width="1" /><line x1="663" y1="140" x2="772" y2="184" stroke="rgba(255,255,255,0.06)" stroke-width="1" /><line x1="471" y1="215" x2="405" y2="135" stroke="rgba(255,255,255,0.12)" stroke-width="1" /><line x1="63" y1="325" x2="8" y2="284" stroke="rgba(255,255,255,0.1)" stroke-width="1" /><line x1="676" y1="110" x2="798" y2="76" stroke="rgba(255,255,255,0.09)" stroke-width="1" /><line x1="708" y1="420" x2="855" y2="410" stroke="rgba(255,255,255,0.09)" stroke-width="1" /><line x1="796" y1="430" x2="952" y2="322" stroke="rgba(255,255,255,0.17)" stroke-width="1" /><line x1="304" y1="109" x2="259" y2="85" stroke="rgba(255,255,255,0.09)" stroke-width="1" /><line x1="230" y1="354" x2="87" y2="428" stroke="rgba(255,255,255,0.11)" stroke-width="1" /><line x1="386" y1="422" x2="478" y2="514" stroke="rgba(255,255,255,0.1)" stroke-width="1" />

  <g>
    <rect x="38" y="38" rx="14" ry="14" width="170" height="42" fill="rgba(255,255,255,0.12)" />
    <text x="55" y="65" font-family="Arial, Helvetica, sans-serif" font-size="20" font-weight="700" fill="white">
      CYBERNEWS
    </text>
  </g>

  <g>
    <text x="52" y="270" font-family="Arial, Helvetica, sans-serif" font-size="44" font-weight="900" fill="white">
      THREAT INTEL
    </text>
    <text x="52" y="305" font-family="Arial, Helvetica, sans-serif" font-size="20" font-weight="500" fill="rgba(255,255,255,0.86)">
      APT • Phishing • DDoS
    </text>
  </g>

  <g opacity="0.9">
    <rect x="52" y="332" width="180" height="2" fill="rgba(255,255,255,0.7)" />
    <text x="52" y="362" font-family="Courier New, monospace" font-size="16" fill="rgba(255,255,255,0.9)">
      &gt; scan://active
    </text>
  </g>

  <g opacity="0.12">
    <text x="560" y="390" font-family="Arial, Helvetica, sans-serif" font-size="96" font-weight="900" fill="white">
      02
    </text>
  </g>
</svg>
