<svg xmlns="http://www.w3.org/2000/svg" width="800" height="450" viewBox="0 0 800 450">
  <defs>
    <linearGradient id="g" x1="0" y1="0" x2="1" y2="1">
      <stop offset="0%" stop-color="#312e81" />
      <stop offset="100%" stop-color="#6366f1" />
    </linearGradient>
  </defs>

  <rect width="800" height="450" fill="url(#g)" />
  <rect width="800" height="450" fill="rgba(0,0,0,0.18)" />

  <g opacity="0.08">
    <path d="M0 60 H800 M0 120 H800 M0 180 H800 M0 240 H800 M0 300 H800 M0 360 H800 M0 420 H800"
          stroke="white" stroke-width="1" />
    <path d="M80 0 V450 M160 0 V450 M240 0 V450 M320 0 V450 M400 0 V450 M480 0 V450 M560 0 V450 M640 0 V450 M720 0 V450"
          stroke="white" stroke-width="1" />
  </g>

  <circle cx="315" cy="101" r="49" fill="rgba(255,255,255,0.09)" /><circle cx="672" cy="64" r="59" fill="rgba(255,255,255,0.09)" /><circle cx="536" cy="375" r="22" fill="rgba(255,255,255,0.14)" /><circle cx="513" cy="323" r="19" fill="rgba(255,255,255,0.17)" /><circle cx="65" cy="80" r="40" fill="rgba(255,255,255,0.15)" /><circle cx="423" cy="399" r="12" fill="rgba(255,255,255,0.15)" /><circle cx="171" cy="192" r="37" fill="rgba(255,255,255,0.18)" />
  <line x1="409" y1="418" x2="503" y2="516" stroke="rgba(255,255,255,0.1)" stroke-width="1" /><line x1="670" y1="407" x2="702" y2="393" stroke="rgba(255,255,255,0.14)" stroke-width="1" /><line x1="155" y1="249" x2="129" y2="250" stroke="rgba(255,255,255,0.17)" stroke-width="1" /><line x1="523" y1="133" x2="388" y2="169" stroke="rgba(255,255,255,0.12)" stroke-width="1" /><line x1="789" y1="134" x2="866" y2="117" stroke="rgba(255,255,255,0.09)" stroke-width="1" /><line x1="749" y1="30" x2="623" y2="106" stroke="rgba(255,255,255,0.17)" stroke-width="1" /><line x1="402" y1="354" x2="537" y2="375" stroke="rgba(255,255,255,0.18)" stroke-width="1" /><line x1="468" y1="353" x2="483" y2="419" stroke="rgba(255,255,255,0.14)" stroke-width="1" /><line x1="373" y1="198" x2="496" y2="310" stroke="rgba(255,255,255,0.05)" stroke-width="1" /><line x1="391" y1="301" x2="380" y2="262" stroke="rgba(255,255,255,0.18)" stroke-width="1" /><line x1="645" y1="161" x2="580" y2="236" stroke="rgba(255,255,255,0.17)" stroke-width="1" /><line x1="276" y1="47" x2="221" y2="125" stroke="rgba(255,255,255,0.1)" stroke-width="1" /><line x1="23" y1="131" x2="-87" y2="112" stroke="rgba(255,255,255,0.09)" stroke-width="1" /><line x1="676" y1="347" x2="573" y2="381" stroke="rgba(255,255,255,0.06)" stroke-width="1" />

  <g>
    <rect x="38" y="38" rx="14" ry="14" width="170" height="42" fill="rgba(255,255,255,0.12)" />
    <text x="55" y="65" font-family="Arial, Helvetica, sans-serif" font-size="20" font-weight="700" fill="white">
      CYBERNEWS
    </text>
  </g>

  <g>
    <text x="52" y="270" font-family="Arial, Helvetica, sans-serif" font-size="44" font-weight="900" fill="white">
      VULNERABILITY
    </text>
    <text x="52" y="305" font-family="Arial, Helvetica, sans-serif" font-size="20" font-weight="500" fill="rgba(255,255,255,0.86)">
      CVE • Exploit • Patch
    </text>
  </g>

  <g opacity="0.9">
    <rect x="52" y="332" width="180" height="2" fill="rgba(255,255,255,0.7)" />
    <text x="52" y="362" font-family="Courier New, monospace" font-size="16" fill="rgba(255,255,255,0.9)">
      &gt; threat_detected()
    </text>
  </g>

  <g opacity="0.12">
    <text x="560" y="390" font-family="Arial, Helvetica, sans-serif" font-size="96" font-weight="900" fill="white">
      08
    </text>
  </g>
</svg>
